Coordinates
version=1
nRows=17
nColumns=24
inDegrees=yes

Units are S.I. units (second, meters, Newtons, ...)
Angles are in degrees.

endheader
time	pelvis_tilt	pelvis_list	pelvis_rotation	pelvis_tx	pelvis_ty	pelvis_tz	hip_flexion_r	hip_adduction_r	hip_rotation_r	knee_angle_r	ankle_angle_r	subtalar_angle_r	mtp_angle_r	hip_flexion_l	hip_adduction_l	hip_rotation_l	knee_angle_l	ankle_angle_l	subtalar_angle_l	mtp_angle_l	lumbar_extension	lumbar_bending	lumbar_rotation
      1.07883333	      0.19105864	      2.87391505	      0.28028171	      0.51207540	      1.02267363	      0.27488519	      6.62789602	      2.45071303	      2.60742181	    -12.44553155	      4.66674713	    -12.79028964	      4.93275665	     13.46635024	      2.09926476	     -5.07352073	    -62.36105217	      5.07600987	    -10.98442251	      1.34524858	     -0.72825750	     -1.67186907	      4.25134602
      1.08300000	      0.19142831	      2.91498872	     -0.07325214	      0.51674694	      1.02304691	      0.27547439	      6.22356662	      2.42714002	      2.81734638	    -12.16120482	      4.72720457	    -12.59056001	      4.97769950	     13.92501592	      2.09375939	     -5.35046646	    -61.92178101	      5.21436905	    -10.96983826	      1.35167489	     -0.72636113	     -1.71136169	      4.35354870
      1.08716667	      0.27874843	      2.96829030	     -0.42805865	      0.52141651	      1.02352484	      0.27608245	      5.72404490	      2.38535013	      3.00850956	    -11.87915404	      4.86306994	    -12.40040222	      5.09060749	     14.26955096	      2.09168964	     -5.63506901	    -61.43144124	      5.36422992	    -10.90301655	      1.36510524	     -0.81489195	     -1.77351517	      4.74330934
      1.09133333	      0.27625104	      3.01185313	     -0.77652437	      0.52604620	      1.02383911	      0.27667064	      5.33244138	      2.35127206	      3.22273521	    -11.61094638	      4.92933075	    -12.20705933	      5.14026737	     14.71504588	      2.07925039	     -5.91131220	    -60.93067333	      5.47742523	    -10.90872587	      1.36941805	     -0.81348746	     -1.82452086	      4.85151919
      1.09550000	      0.33348788	      3.04618830	     -1.11608595	      0.53068909	      1.02421057	      0.27724601	      4.86981025	      2.32077118	      3.41534223	    -11.33646532	      5.05639340	    -12.03250301	      5.26097940	     15.08071316	      2.05394522	     -6.17699356	    -60.39580406	      5.59879631	    -10.88281063	      1.37758832	     -0.86758687	     -1.86448365	      5.22553823
      1.09966667	      0.34610203	      3.09209516	     -1.45807061	      0.53530092	      1.02449742	      0.27781336	      4.46894032	      2.27409968	      3.61720530	    -11.08251371	      5.14399876	    -11.83604740	      5.41713870	     15.48804092	      2.04106053	     -6.44243532	    -59.82985064	      5.68937286	    -10.90686783	      1.38313476	     -0.87678718	     -1.91618644	      5.47859174
      1.10383333	      0.37882013	      3.13151452	     -1.78725862	      0.53989164	      1.02478431	      0.27836871	      4.04508570	      2.23116470	      3.82848002	    -10.82948706	      5.26708694	    -11.67735814	      5.51418825	     15.86686734	      2.02024769	     -6.69253714	    -59.23964821	      5.76035269	    -10.91447010	      1.38415360	     -0.91436984	     -1.96496350	      5.64710678
      1.10800000	      0.38515106	      3.15301324	     -2.11841676	      0.54447863	      1.02500201	      0.27890929	      3.65415013	      2.20303404	      4.03548689	    -10.58231654	      5.33893549	    -11.50712543	      5.57099881	     16.26716677	      1.97245890	     -6.94881263	    -58.63362271	      5.82931808	    -10.92915787	      1.38295015	     -0.91466288	     -1.98434144	      5.76660163
      1.11216667	      0.42617137	      3.18997019	     -2.43046240	      0.54904511	      1.02525322	      0.27943459	      3.22135121	      2.15296410	      4.23735226	    -10.32844395	      5.46284957	    -11.33924031	      5.66929879	     16.61841250	      1.95230447	     -7.17156797	    -57.98718246	      5.87987737	    -10.95731115	      1.37836230	     -0.96924098	     -2.03797055	      6.04752087
      1.11633333	      0.43623805	      3.21416637	     -2.74365723	      0.55361050	      1.02542921	      0.27993874	      2.82968460	      2.11264936	      4.43965273	    -10.08973420	      5.55693700	    -11.16226847	      5.77488136	     16.99557929	      1.91257988	     -7.39855583	    -57.32390199	      5.92385067	    -10.98157052	      1.37074368	     -0.97867490	     -2.06459350	      6.24461136
      1.12050000	      0.41913785	      3.22082711	     -3.03867026	      0.55814957	      1.02551928	      0.28043113	      2.46469803	      2.09090910	      4.64149838	     -9.84551863	      5.64311136	    -11.00147287	      5.80553303	     17.40437299	      1.84987816	     -7.60729547	    -56.66134576	      5.96447851	    -10.99373710	      1.36692252	     -0.96919472	     -2.08404389	      6.29323146
      1.12466667	      0.47456423	      3.25476133	     -3.34898449	      0.56269609	      1.02573021	      0.28091725	      2.03195207	      2.02911245	      4.83644146	     -9.62330404	      5.77082393	    -10.84598952	      5.87744194	     17.70386057	      1.82513788	     -7.82036882	    -55.92505986	      5.96682816	    -11.01825137	      1.35620492	     -1.02964431	     -2.12568941	      6.55440833
      1.12883333	      0.46732988	      3.27159160	     -3.65284114	      0.56722194	      1.02580013	      0.28139137	      1.67460804	      1.98677038	      5.03927937	     -9.41398271	      5.85389431	    -10.67961234	      5.91866987	     18.07233653	      1.77398299	     -8.02723304	    -55.19167531	      5.97721264	    -11.02085328	      1.34845424	     -1.02438173	     -2.14218855	      6.65633916
      1.13300000	      0.48835839	      3.27585046	     -3.93455391	      0.57173750	      1.02588678	      0.28182652	      1.27456844	      1.95166355	      5.22620588	     -9.18337738	      5.97705281	    -10.51955309	      5.98338604	     18.40378238	      1.72022539	     -8.19969727	    -54.44084238	      5.97909785	    -11.03282401	      1.33463004	     -1.05994617	     -2.15824567	      6.87799177
      1.13716667	      0.48477119	      3.29127772	     -4.22587085	      0.57625722	      1.02592394	      0.28226364	      0.91740292	      1.90254357	      5.42145212	     -8.98396197	      6.06284085	    -10.35533321	      6.01628750	     18.74567813	      1.67246529	     -8.38306506	    -53.65598387	      5.96600941	    -11.02192628	      1.32585721	     -1.05999562	     -2.17743208	      6.95808598
      1.14133333	      0.49265229	      3.30006973	     -4.50716345	      0.58075746	      1.02594496	      0.28268425	      0.54707243	      1.85643654	      5.60893612	     -8.78233771	      6.17178210	    -10.19392676	      6.04890862	     19.06844993	      1.62126476	     -8.54792500	    -52.85315749	      5.94469812	    -11.01293361	      1.31605692	     -1.07935798	     -2.19268895	      7.08505098
      1.14550000	      0.50595352	      3.30859235	     -4.78285039	      0.58525852	      1.02595763	      0.28308098	      0.17288092	      1.80555795	      5.78620847	     -8.58500708	      6.28549809	    -10.02916678	      6.08109447	     19.37271089	      1.57493481	     -8.69918744	    -52.02340196	      5.91533453	    -10.99729597	      1.30529634	     -1.10446359	     -2.21108979	      7.22793162
